<svg width="600" height="383" viewBox="0 0 600 383" fill="none" xmlns="http://www.w3.org/2000/svg">
<g clip-path="url(#clip0)">
<path opacity="0.1" d="M586.823 381.572C591.893 377.605 586.025 366.582 573.715 356.951C561.406 347.32 547.317 342.729 542.247 346.696C537.177 350.663 543.045 361.686 555.354 371.317C567.663 380.947 581.752 385.539 586.823 381.572Z" fill="#19AE9D"/>
<path d="M566.766 365.744C570.615 365.744 573.735 362.547 573.735 358.604C573.735 354.661 570.615 351.465 566.766 351.465C562.917 351.465 559.797 354.661 559.797 358.604C559.797 362.547 562.917 365.744 566.766 365.744Z" fill="#3F3D56"/>
<path d="M566.766 357.017C570.615 357.017 573.735 353.821 573.735 349.878C573.735 345.935 570.615 342.738 566.766 342.738C562.917 342.738 559.797 345.935 559.797 349.878C559.797 353.821 562.917 357.017 566.766 357.017Z" fill="#3F3D56"/>
<path d="M566.766 348.295C570.615 348.295 573.735 345.098 573.735 341.155C573.735 337.212 570.615 334.016 566.766 334.016C562.917 334.016 559.797 337.212 559.797 341.155C559.797 345.098 562.917 348.295 566.766 348.295Z" fill="#3F3D56"/>
<path d="M566.766 339.568C570.615 339.568 573.735 336.372 573.735 332.429C573.735 328.486 570.615 325.289 566.766 325.289C562.917 325.289 559.797 328.486 559.797 332.429C559.797 336.372 562.917 339.568 566.766 339.568Z" fill="#3F3D56"/>
<path d="M566.766 330.842C570.615 330.842 573.735 327.645 573.735 323.702C573.735 319.759 570.615 316.562 566.766 316.562C562.917 316.562 559.797 319.759 559.797 323.702C559.797 327.645 562.917 330.842 566.766 330.842Z" fill="#3F3D56"/>
<path d="M566.766 322.119C570.615 322.119 573.735 318.922 573.735 314.979C573.735 311.036 570.615 307.84 566.766 307.84C562.917 307.84 559.797 311.036 559.797 314.979C559.797 318.922 562.917 322.119 566.766 322.119Z" fill="#3F3D56"/>
<path d="M566.766 313.392C570.615 313.392 573.735 310.196 573.735 306.253C573.735 302.31 570.615 299.113 566.766 299.113C562.917 299.113 559.797 302.31 559.797 306.253C559.797 310.196 562.917 313.392 566.766 313.392Z" fill="#3F3D56"/>
<path d="M592.855 246.544C593.808 245.597 594.676 244.598 595.453 243.556L577.137 241.203L596.947 241.315C598.847 238.081 599.885 234.578 599.996 231.019C600.108 227.461 599.291 223.922 597.596 220.618L571.025 231.406L595.518 217.31C593.223 214.203 590.136 211.499 586.447 209.367C582.758 207.234 578.547 205.719 574.077 204.916C569.607 204.113 564.974 204.04 560.466 204.699C555.957 205.359 551.671 206.739 547.874 208.751C544.078 210.764 540.852 213.368 538.397 216.399C535.943 219.43 534.314 222.825 533.61 226.371C532.906 229.917 533.144 233.538 534.308 237.009C535.472 240.479 537.538 243.725 540.376 246.544C538.891 248.019 537.615 249.616 536.57 251.306L560.341 260.96L535.011 254.304C533.233 258.42 532.793 262.819 533.734 267.101C534.674 271.384 536.963 275.416 540.395 278.832C536.522 282.685 534.113 287.313 533.443 292.186C532.772 297.06 533.869 301.982 536.606 306.391C539.343 310.801 543.611 314.518 548.921 317.119C554.231 319.72 560.37 321.099 566.635 321.099C572.9 321.099 579.038 319.72 584.349 317.119C589.659 314.518 593.927 310.801 596.664 306.391C599.401 301.982 600.497 297.06 599.827 292.186C599.157 287.313 596.748 282.685 592.874 278.832C597.502 274.228 600.018 268.541 600.018 262.683C600.018 256.826 597.502 251.138 592.874 246.534L592.855 246.544Z" fill="#19AE9D"/>
<path opacity="0.1" d="M533.232 262.693C533.22 268.553 535.737 274.243 540.377 278.843C536.504 282.695 534.094 287.323 533.424 292.196C532.754 297.07 533.85 301.993 536.587 306.402C539.324 310.811 543.592 314.528 548.902 317.129C554.213 319.73 560.351 321.109 566.616 321.109C572.881 321.109 579.02 319.73 584.33 317.129C589.641 314.528 593.908 310.811 596.646 306.402C599.383 301.993 600.479 297.07 599.809 292.196C599.139 287.323 596.729 282.695 592.856 278.843C597.331 274.401 533.232 259.761 533.232 262.693Z" fill="black"/>
<path d="M550.1 0V365.87L391.624 348.593L198.979 379.341L197.426 379.59L44.1465 346.56V28.4566L203.272 0L377.336 28.4566L383.954 27.364L550.1 0Z" fill="#444053"/>
<path d="M523.471 19.9805V347.338L381.68 331.88L209.312 359.391L207.922 359.61L70.7754 330.061V45.4389L213.157 19.9805L368.892 45.4389L374.815 44.4633L523.471 19.9805Z" fill="white"/>
<path opacity="0.1" d="M391.624 348.593L198.979 379.341L203.272 0L377.335 28.4566L383.954 27.364L391.624 348.593Z" fill="black"/>
<g opacity="0.3">
<path opacity="0.3" d="M372.387 70.125L372.465 176.583H428.97V132.882H525.745L537.111 121.479" stroke="#444053" stroke-width="3" stroke-miterlimit="10"/>
<path opacity="0.3" d="M57.7871 103.917H267.898L280.887 99.3438H286.083V201.991H377.012L380.909 211.137V257.379H451.054V314.547" stroke="#444053" stroke-width="3" stroke-miterlimit="10"/>
<path opacity="0.3" d="M313.836 314.548V201.992" stroke="#444053" stroke-width="3" stroke-miterlimit="10"/>
<path opacity="0.3" d="M537.112 284.395H313.836" stroke="#444053" stroke-width="3" stroke-miterlimit="10"/>
<path opacity="0.3" d="M481.189 70.125V314.547" stroke="#444053" stroke-width="3" stroke-miterlimit="10"/>
<path opacity="0.3" d="M57.1367 262.785H537.111" stroke="#444053" stroke-width="3" stroke-miterlimit="10"/>
<path opacity="0.3" d="M115.553 314.547V70.125" stroke="#444053" stroke-width="3" stroke-miterlimit="10"/>
<path opacity="0.3" d="M227.121 70.125V314.547" stroke="#444053" stroke-width="3" stroke-miterlimit="10"/>
<path opacity="0.3" d="M57.7871 131.867L428.971 132.884" stroke="#444053" stroke-width="3" stroke-miterlimit="10"/>
<path opacity="0.3" d="M165.816 70.5664V314.546" stroke="#444053" stroke-width="3" stroke-miterlimit="10"/>
<path opacity="0.3" d="M57.1367 188.434H227.122L313.835 262.787" stroke="#444053" stroke-width="3" stroke-miterlimit="10"/>
<path opacity="0.3" d="M332.619 70.125V201.991" stroke="#444053" stroke-width="3" stroke-miterlimit="10"/>
<path opacity="0.3" d="M313.836 225.609H537.112" stroke="#444053" stroke-width="3" stroke-miterlimit="10"/>
</g>
<path d="M350 82C342.574 82 335.452 84.9593 330.201 90.2268C324.95 95.4944 322 102.639 322 110.088C322 125.601 350 176 350 176C350 176 378 125.621 378 110.088C378 102.639 375.05 95.4944 369.799 90.2268C364.548 84.9593 357.426 82 350 82ZM350 122.069C347.564 122.069 345.182 121.345 343.156 119.987C341.131 118.629 339.552 116.699 338.619 114.441C337.687 112.183 337.443 109.699 337.918 107.301C338.394 104.904 339.567 102.703 341.29 100.974C343.012 99.2462 345.207 98.0693 347.597 97.5925C349.986 97.1157 352.463 97.3604 354.714 98.2957C356.965 99.231 358.889 100.815 360.242 102.847C361.596 104.879 362.318 107.268 362.318 109.712C362.317 112.989 361.019 116.13 358.709 118.447C356.399 120.763 353.266 122.064 350 122.064V122.069Z" fill="#19AE9D"/>
<path opacity="0.1" d="M350 82C342.574 82 335.452 84.9593 330.201 90.2268C324.95 95.4944 322 102.639 322 110.088C322 125.601 350 176 350 176C350 176 378 125.621 378 110.088C378 102.639 375.05 95.4944 369.799 90.2268C364.548 84.9593 357.426 82 350 82ZM350 122.069C347.564 122.069 345.182 121.345 343.156 119.987C341.131 118.629 339.552 116.699 338.619 114.441C337.687 112.183 337.443 109.699 337.918 107.301C338.394 104.904 339.567 102.703 341.29 100.974C343.012 99.2462 345.207 98.0693 347.597 97.5925C349.986 97.1157 352.463 97.3604 354.714 98.2957C356.965 99.231 358.889 100.815 360.242 102.847C361.596 104.879 362.318 107.268 362.318 109.712C362.317 112.989 361.019 116.13 358.709 118.447C356.399 120.763 353.266 122.064 350 122.064V122.069Z" fill="black"/>
<path d="M350 86C342.574 86 335.452 88.9593 330.201 94.2268C324.95 99.4944 322 106.639 322 114.088C322 129.601 350 180 350 180C350 180 378 129.621 378 114.088C378 106.639 375.05 99.4944 369.799 94.2268C364.548 88.9593 357.426 86 350 86ZM350 126.069C347.564 126.069 345.182 125.345 343.156 123.987C341.131 122.629 339.552 120.699 338.619 118.441C337.687 116.183 337.443 113.699 337.918 111.301C338.394 108.904 339.567 106.703 341.29 104.974C343.012 103.246 345.207 102.069 347.597 101.592C349.986 101.116 352.463 101.36 354.714 102.296C356.965 103.231 358.889 104.815 360.242 106.847C361.596 108.879 362.318 111.268 362.318 113.712C362.317 116.989 361.019 120.13 358.709 122.447C356.399 124.763 353.266 126.064 350 126.064V126.069Z" fill="#19AE9D"/>
<path opacity="0.1" d="M250.854 379.12C261.874 375.406 269.223 369.517 267.268 365.965C265.313 362.413 254.794 362.544 243.774 366.257C232.754 369.97 225.405 375.86 227.36 379.412C229.316 382.964 239.834 382.833 250.854 379.12Z" fill="#19AE9D"/>
<path opacity="0.1" d="M476.878 368.956C487.898 365.242 495.246 359.353 493.291 355.801C491.336 352.249 480.818 352.38 469.797 356.093C458.777 359.806 451.429 365.696 453.384 369.248C455.339 372.8 465.858 372.669 476.878 368.956Z" fill="#19AE9D"/>
<path d="M247.06 374.838C249.715 374.838 251.866 372.636 251.866 369.919C251.866 367.202 249.715 365 247.06 365C244.406 365 242.254 367.202 242.254 369.919C242.254 372.636 244.406 374.838 247.06 374.838Z" fill="#3F3D56"/>
<path d="M473.084 364.674C475.738 364.674 477.89 362.472 477.89 359.755C477.89 357.038 475.738 354.836 473.084 354.836C470.429 354.836 468.277 357.038 468.277 359.755C468.277 362.472 470.429 364.674 473.084 364.674Z" fill="#3F3D56"/>
<path d="M247.06 368.822C249.715 368.822 251.866 366.62 251.866 363.903C251.866 361.187 249.715 358.984 247.06 358.984C244.406 358.984 242.254 361.187 242.254 363.903C242.254 366.62 244.406 368.822 247.06 368.822Z" fill="#3F3D56"/>
<path d="M473.084 358.658C475.738 358.658 477.89 356.456 477.89 353.739C477.89 351.023 475.738 348.82 473.084 348.82C470.429 348.82 468.277 351.023 468.277 353.739C468.277 356.456 470.429 358.658 473.084 358.658Z" fill="#3F3D56"/>
<path d="M247.06 362.811C249.715 362.811 251.866 360.608 251.866 357.892C251.866 355.175 249.715 352.973 247.06 352.973C244.406 352.973 242.254 355.175 242.254 357.892C242.254 360.608 244.406 362.811 247.06 362.811Z" fill="#3F3D56"/>
<path d="M473.084 352.65C475.738 352.65 477.89 350.448 477.89 347.731C477.89 345.015 475.738 342.812 473.084 342.812C470.429 342.812 468.277 345.015 468.277 347.731C468.277 350.448 470.429 352.65 473.084 352.65Z" fill="#3F3D56"/>
<path d="M247.06 356.799C249.715 356.799 251.866 354.596 251.866 351.88C251.866 349.163 249.715 346.961 247.06 346.961C244.406 346.961 242.254 349.163 242.254 351.88C242.254 354.596 244.406 356.799 247.06 356.799Z" fill="#3F3D56"/>
<path d="M473.084 346.635C475.738 346.635 477.89 344.432 477.89 341.716C477.89 338.999 475.738 336.797 473.084 336.797C470.429 336.797 468.277 338.999 468.277 341.716C468.277 344.432 470.429 346.635 473.084 346.635Z" fill="#3F3D56"/>
<path d="M247.06 350.783C249.715 350.783 251.866 348.581 251.866 345.864C251.866 343.148 249.715 340.945 247.06 340.945C244.406 340.945 242.254 343.148 242.254 345.864C242.254 348.581 244.406 350.783 247.06 350.783Z" fill="#3F3D56"/>
<path d="M473.084 340.619C475.738 340.619 477.89 338.417 477.89 335.7C477.89 332.984 475.738 330.781 473.084 330.781C470.429 330.781 468.277 332.984 468.277 335.7C468.277 338.417 470.429 340.619 473.084 340.619Z" fill="#3F3D56"/>
<path d="M247.06 344.771C249.715 344.771 251.866 342.569 251.866 339.853C251.866 337.136 249.715 334.934 247.06 334.934C244.406 334.934 242.254 337.136 242.254 339.853C242.254 342.569 244.406 344.771 247.06 344.771Z" fill="#3F3D56"/>
<path d="M473.084 334.607C475.738 334.607 477.89 332.405 477.89 329.688C477.89 326.972 475.738 324.77 473.084 324.77C470.429 324.77 468.277 326.972 468.277 329.688C468.277 332.405 470.429 334.607 473.084 334.607Z" fill="#3F3D56"/>
<path d="M247.06 338.76C249.715 338.76 251.866 336.557 251.866 333.841C251.866 331.124 249.715 328.922 247.06 328.922C244.406 328.922 242.254 331.124 242.254 333.841C242.254 336.557 244.406 338.76 247.06 338.76Z" fill="#3F3D56"/>
<path d="M473.084 328.596C475.738 328.596 477.89 326.393 477.89 323.677C477.89 320.96 475.738 318.758 473.084 318.758C470.429 318.758 468.277 320.96 468.277 323.677C468.277 326.393 470.429 328.596 473.084 328.596Z" fill="#3F3D56"/>
<path d="M229.075 292.685C228.42 292.04 227.821 291.361 227.282 290.653L239.908 289.026L226.269 289.108C224.961 286.878 224.247 284.464 224.171 282.011C224.096 279.559 224.659 277.12 225.827 274.844L244.143 282.253L227.256 272.537C228.838 270.396 230.966 268.533 233.508 267.064C236.05 265.595 238.952 264.552 242.032 263.999C245.113 263.446 248.306 263.395 251.412 263.85C254.518 264.305 257.472 265.256 260.088 266.643C262.704 268.03 264.927 269.824 266.618 271.913C268.309 274.001 269.433 276.34 269.918 278.784C270.403 281.227 270.239 283.722 269.438 286.114C268.636 288.506 267.213 290.743 265.258 292.685C266.271 293.704 267.142 294.804 267.856 295.968L251.482 302.63L268.954 298.056C270.181 300.893 270.484 303.925 269.836 306.877C269.189 309.829 267.611 312.608 265.245 314.963C267.915 317.618 269.577 320.808 270.039 324.167C270.501 327.527 269.746 330.92 267.86 333.96C265.973 336.999 263.031 339.562 259.371 341.355C255.71 343.148 251.479 344.099 247.16 344.099C242.841 344.099 238.61 343.148 234.949 341.355C231.289 339.562 228.347 336.999 226.46 333.96C224.574 330.92 223.818 327.527 224.281 324.167C224.743 320.808 226.404 317.618 229.075 314.963C225.885 311.789 224.152 307.869 224.152 303.831C224.152 299.794 225.885 295.874 229.075 292.7V292.685Z" fill="#19AE9D"/>
<path d="M455.098 282.525C454.443 281.88 453.844 281.201 453.306 280.492L465.932 278.866L452.292 278.948C450.985 276.718 450.271 274.304 450.195 271.851C450.119 269.399 450.682 266.96 451.851 264.684L470.167 272.093L453.28 262.377C454.861 260.236 456.99 258.373 459.532 256.904C462.074 255.435 464.976 254.392 468.056 253.839C471.136 253.286 474.329 253.235 477.435 253.69C480.542 254.145 483.495 255.096 486.111 256.483C488.728 257.87 490.951 259.664 492.642 261.752C494.333 263.841 495.456 266.18 495.941 268.623C496.426 271.067 496.263 273.562 495.461 275.954C494.659 278.345 493.237 280.582 491.282 282.525C492.295 283.543 493.166 284.644 493.879 285.808L477.506 292.47L494.977 287.896C496.204 290.733 496.507 293.765 495.86 296.717C495.212 299.669 493.634 302.448 491.269 304.802C493.939 307.458 495.6 310.648 496.063 314.007C496.525 317.367 495.77 320.76 493.883 323.8C491.996 326.839 489.055 329.402 485.394 331.195C481.734 332.988 477.502 333.939 473.183 333.939C468.865 333.939 464.633 332.988 460.973 331.195C457.312 329.402 454.37 326.839 452.484 323.8C450.597 320.76 449.842 317.367 450.304 314.007C450.767 310.648 452.428 307.458 455.098 304.802C451.909 301.629 450.175 297.709 450.175 293.671C450.175 289.634 451.909 285.714 455.098 282.54V282.525Z" fill="#19AE9D"/>
<path opacity="0.1" d="M270.168 303.8C270.177 307.839 268.442 311.762 265.245 314.933C267.915 317.589 269.577 320.779 270.039 324.138C270.501 327.498 269.746 330.891 267.86 333.931C265.973 336.97 263.031 339.533 259.371 341.326C255.71 343.119 251.479 344.07 247.16 344.07C242.841 344.07 238.61 343.119 234.949 341.326C231.289 339.533 228.347 336.97 226.46 333.931C224.574 330.891 223.818 327.498 224.281 324.138C224.743 320.779 226.404 317.589 229.075 314.933C225.99 311.885 270.168 301.798 270.168 303.8Z" fill="black"/>
<path opacity="0.1" d="M496.192 293.636C496.201 297.675 494.466 301.598 491.268 304.769C493.939 307.425 495.6 310.615 496.063 313.974C496.525 317.334 495.77 320.727 493.883 323.767C491.996 326.806 489.055 329.369 485.394 331.162C481.734 332.955 477.502 333.906 473.183 333.906C468.865 333.906 464.633 332.955 460.973 331.162C457.312 329.369 454.37 326.806 452.484 323.767C450.597 320.727 449.842 317.334 450.304 313.974C450.767 310.615 452.428 307.425 455.098 304.769C452.013 301.72 496.192 291.634 496.192 293.636Z" fill="black"/>
<path opacity="0.1" d="M53.5903 370.392C58.6606 366.425 52.7923 355.402 40.483 345.771C28.1738 336.141 14.0849 331.55 9.01458 335.516C3.94427 339.483 9.81259 350.506 22.1218 360.137C34.4311 369.767 48.52 374.359 53.5903 370.392Z" fill="#19AE9D"/>
<path d="M33.5335 354.564C37.3824 354.564 40.5025 351.368 40.5025 347.425C40.5025 343.482 37.3824 340.285 33.5335 340.285C29.6846 340.285 26.5645 343.482 26.5645 347.425C26.5645 351.368 29.6846 354.564 33.5335 354.564Z" fill="#3F3D56"/>
<path d="M33.5335 345.838C37.3824 345.838 40.5025 342.641 40.5025 338.698C40.5025 334.755 37.3824 331.559 33.5335 331.559C29.6846 331.559 26.5645 334.755 26.5645 338.698C26.5645 342.641 29.6846 345.838 33.5335 345.838Z" fill="#3F3D56"/>
<path d="M33.5335 337.115C37.3824 337.115 40.5025 333.919 40.5025 329.976C40.5025 326.032 37.3824 322.836 33.5335 322.836C29.6846 322.836 26.5645 326.032 26.5645 329.976C26.5645 333.919 29.6846 337.115 33.5335 337.115Z" fill="#3F3D56"/>
<path d="M33.5335 328.388C37.3824 328.388 40.5025 325.192 40.5025 321.249C40.5025 317.306 37.3824 314.109 33.5335 314.109C29.6846 314.109 26.5645 317.306 26.5645 321.249C26.5645 325.192 29.6846 328.388 33.5335 328.388Z" fill="#3F3D56"/>
<path d="M33.5335 319.662C37.3824 319.662 40.5025 316.465 40.5025 312.522C40.5025 308.579 37.3824 305.383 33.5335 305.383C29.6846 305.383 26.5645 308.579 26.5645 312.522C26.5645 316.465 29.6846 319.662 33.5335 319.662Z" fill="#3F3D56"/>
<path d="M33.5335 310.939C37.3824 310.939 40.5025 307.743 40.5025 303.8C40.5025 299.857 37.3824 296.66 33.5335 296.66C29.6846 296.66 26.5645 299.857 26.5645 303.8C26.5645 307.743 29.6846 310.939 33.5335 310.939Z" fill="#3F3D56"/>
<path d="M33.5335 302.213C37.3824 302.213 40.5025 299.016 40.5025 295.073C40.5025 291.13 37.3824 287.934 33.5335 287.934C29.6846 287.934 26.5645 291.13 26.5645 295.073C26.5645 299.016 29.6846 302.213 33.5335 302.213Z" fill="#3F3D56"/>
<path d="M59.6244 235.364C60.5779 234.417 61.446 233.418 62.2223 232.377L43.9067 230.024L63.7162 230.136C65.6165 226.901 66.6541 223.398 66.7658 219.839C66.8775 216.281 66.0608 212.742 64.3656 209.439L37.795 220.227L62.2873 206.13C59.9931 203.023 56.9053 200.319 53.2165 198.187C49.5277 196.055 45.317 194.54 40.8469 193.737C36.3769 192.934 31.7433 192.86 27.2351 193.52C22.7269 194.179 18.4408 195.559 14.644 197.572C10.8472 199.585 7.62113 202.188 5.16695 205.219C2.71277 208.251 1.0831 211.645 0.379561 215.191C-0.323977 218.737 -0.0862962 222.358 1.07777 225.829C2.24184 229.3 4.30734 232.546 7.14548 235.364C5.66078 236.839 4.38467 238.436 3.33946 240.126L27.1108 249.781L1.78068 243.124C0.0020986 247.24 -0.436999 251.639 0.503095 255.922C1.44319 260.204 3.73283 264.236 7.16497 267.652C3.29171 271.505 0.882263 276.133 0.212104 281.006C-0.458055 285.88 0.638118 290.803 3.3753 295.212C6.11248 299.621 10.3802 303.338 15.6905 305.939C21.0008 308.54 27.1394 309.919 33.4044 309.919C39.6694 309.919 45.808 308.54 51.1183 305.939C56.4286 303.338 60.6963 299.621 63.4335 295.212C66.1707 290.803 67.2669 285.88 66.5967 281.006C65.9265 276.133 63.5171 271.505 59.6438 267.652C64.2718 263.048 66.7878 257.361 66.7878 251.503C66.7878 245.646 64.2718 239.958 59.6438 235.354L59.6244 235.364Z" fill="#19AE9D"/>
<path opacity="0.1" d="M4.67052e-05 251.514C-0.0125047 257.373 2.50505 263.064 7.14445 267.663C3.27119 271.516 0.861745 276.143 0.191586 281.017C-0.478573 285.89 0.6176 290.813 3.35478 295.222C6.09197 299.631 10.3597 303.349 15.67 305.95C20.9803 308.55 27.1189 309.93 33.3839 309.93C39.6489 309.93 45.7875 308.55 51.0978 305.95C56.4081 303.349 60.6758 299.631 63.413 295.222C66.1502 290.813 67.2464 285.89 66.5762 281.017C65.906 276.143 63.4966 271.516 59.6233 267.663C64.0983 263.222 4.67052e-05 248.582 4.67052e-05 251.514Z" fill="black"/>
<g clip-path="url(#clip1)">
<path d="M347.916 272.002C389.936 272.002 424.001 269.471 424.001 266.349C424.001 263.226 389.936 260.695 347.916 260.695C305.895 260.695 271.83 263.226 271.83 266.349C271.83 269.471 305.895 272.002 347.916 272.002Z" fill="#3F3D56"/>
<path d="M394.241 203.195H299.781V266.302H394.241V203.195Z" fill="#F2F2F2"/>
<path d="M331.45 227.277H307.732V266.654H331.45V227.277Z" fill="#3F3D56"/>
<path d="M318.508 229.637H312.119V235.302H318.508V229.637Z" fill="#F2F2F2"/>
<path d="M327.063 229.637H320.674V235.302H327.063V229.637Z" fill="#F2F2F2"/>
<path d="M318.508 237.363H312.119V243.234H318.508V237.363Z" fill="#F2F2F2"/>
<path d="M327.063 237.363H320.674V243.234H327.063V237.363Z" fill="#F2F2F2"/>
<path d="M328.434 251.049C329.267 251.049 329.942 250.406 329.942 249.614C329.942 248.822 329.267 248.18 328.434 248.18C327.601 248.18 326.926 248.822 326.926 249.614C326.926 250.406 327.601 251.049 328.434 251.049Z" fill="#19AE9D"/>
<path d="M386.288 223.535H339.4V260.956H386.288V223.535Z" fill="#3F3D56"/>
<path d="M404.11 215.078H289.908L297.523 199.937L299.227 196.547L301.456 192.114L303.16 188.724L305.136 184.797H395.113L396.279 188.724L397.287 192.114L398.604 196.547L399.612 199.937L404.11 215.078Z" fill="#3F3D56"/>
<path d="M342.692 239.055H341.047V248.703H342.692V239.055Z" fill="#19AE9D"/>
<path d="M342.692 240.488H341.047V241.662H342.692V240.488Z" fill="#F2F2F2"/>
<path d="M342.692 246.094H341.047V247.267H342.692V246.094Z" fill="#F2F2F2"/>
<path d="M347.489 239.055H343.514V248.703H347.489V239.055Z" fill="#19AE9D"/>
<path d="M347.489 240.488H343.514V241.662H347.489V240.488Z" fill="#F2F2F2"/>
<path d="M347.489 246.094H343.514V247.267H347.489V246.094Z" fill="#F2F2F2"/>
<path d="M350.094 239.055H348.449V248.703H350.094V239.055Z" fill="#19AE9D"/>
<path d="M350.094 240.488H348.449V241.662H350.094V240.488Z" fill="#F2F2F2"/>
<path d="M350.094 246.094H348.449V247.267H350.094V246.094Z" fill="#F2F2F2"/>
<path d="M352.563 239.055H350.918V248.703H352.563V239.055Z" fill="#19AE9D"/>
<path d="M352.563 240.488H350.918V241.662H352.563V240.488Z" fill="#F2F2F2"/>
<path d="M352.563 246.094H350.918V247.267H352.563V246.094Z" fill="#F2F2F2"/>
<path d="M354.149 239.089L352.609 239.641L356.188 248.669L357.727 248.117L354.149 239.089Z" fill="#19AE9D"/>
<path d="M354.68 240.429L353.141 240.98L353.576 242.079L355.115 241.527L354.68 240.429Z" fill="#F2F2F2"/>
<path d="M356.76 245.675L355.221 246.227L355.656 247.325L357.195 246.773L356.76 245.675Z" fill="#F2F2F2"/>
<path d="M384.781 239.055H380.805V248.703H384.781V239.055Z" fill="#19AE9D"/>
<path d="M384.781 240.488H380.805V241.662H384.781V240.488Z" fill="#F2F2F2"/>
<path d="M384.781 246.094H380.805V247.267H384.781V246.094Z" fill="#F2F2F2"/>
<path d="M379.844 239.055H378.199V248.703H379.844V239.055Z" fill="#19AE9D"/>
<path d="M379.844 240.488H378.199V241.662H379.844V240.488Z" fill="#F2F2F2"/>
<path d="M379.844 246.094H378.199V247.267H379.844V246.094Z" fill="#F2F2F2"/>
<path d="M377.378 239.055H375.732V248.703H377.378V239.055Z" fill="#19AE9D"/>
<path d="M377.378 240.488H375.732V241.662H377.378V240.488Z" fill="#F2F2F2"/>
<path d="M377.378 246.094H375.732V247.267H377.378V246.094Z" fill="#F2F2F2"/>
<path d="M374.147 239.089L370.568 248.117L372.108 248.669L375.686 239.641L374.147 239.089Z" fill="#19AE9D"/>
<path d="M373.615 240.429L373.18 241.527L374.719 242.079L375.154 240.981L373.615 240.429Z" fill="#F2F2F2"/>
<path d="M371.535 245.675L371.1 246.773L372.639 247.325L373.074 246.227L371.535 245.675Z" fill="#F2F2F2"/>
<path d="M386.288 248.703H339.4V249.616H386.288V248.703Z" fill="#F2F2F2"/>
<path d="M368.465 239.055H359.828V248.703H368.465V239.055Z" fill="#19AE9D"/>
<path d="M366.34 241.141H361.953V242.966H366.34V241.141Z" fill="#F2F2F2"/>
<path d="M363.256 223.535H362.434V231.88H363.256V223.535Z" fill="#F2F2F2"/>
<path d="M362.846 233.186C363.603 233.186 364.217 232.602 364.217 231.882C364.217 231.162 363.603 230.578 362.846 230.578C362.088 230.578 361.475 231.162 361.475 231.882C361.475 232.602 362.088 233.186 362.846 233.186Z" fill="#F2F2F2"/>
<path d="M397.288 192.113H301.457L303.161 188.723H396.28L397.288 192.113Z" fill="#19AE9D"/>
<path d="M399.613 199.937H297.523L299.227 196.547H398.605L399.613 199.937Z" fill="#19AE9D"/>
</g>
</g>
<defs>
<clipPath id="clip0">
<rect width="600" height="383" fill="white"/>
</clipPath>
<clipPath id="clip1">
<rect width="154" height="118" fill="white" transform="translate(270 154)"/>
</clipPath>
</defs>
</svg>
