<svg width="22" height="22" viewBox="0 0 22 22" fill="none" xmlns="http://www.w3.org/2000/svg">
<path d="M21.1588 0.62136C21.054 0.553193 20.9339 0.512274 20.8094 0.502319C20.6848 0.492365 20.5597 0.513691 20.4455 0.56436L14.4672 3.22161L7.79675 0.55311C7.70367 0.515896 7.60408 0.497719 7.50386 0.499651C7.40364 0.501583 7.30482 0.523586 7.21325 0.56436L0.9455 3.34986C0.812886 3.40878 0.700211 3.5049 0.621136 3.62657C0.542061 3.74825 0.499982 3.89025 0.5 4.03536V20.7499C0.499984 20.8748 0.531189 20.9978 0.590781 21.1076C0.650373 21.2175 0.736462 21.3107 0.841227 21.3788C0.945993 21.4469 1.06611 21.4877 1.19068 21.4976C1.31525 21.5075 1.44031 21.4861 1.5545 21.4354L7.53275 18.7781L14.2032 21.4466C14.2964 21.4834 14.396 21.5014 14.4961 21.4995C14.5963 21.4976 14.6951 21.4758 14.7867 21.4354L21.0545 18.6499C21.1871 18.5909 21.2998 18.4948 21.3789 18.3731C21.4579 18.2515 21.5 18.1095 21.5 17.9644V1.24986C21.4999 1.12497 21.4687 1.00207 21.4091 0.892316C21.3495 0.782561 21.2635 0.689424 21.1588 0.62136ZM8.26775 2.35761L13.7323 4.54386V19.6421L8.26775 17.4559V2.35761ZM2 4.52286L6.76775 2.40411V17.4791L2 19.5956V4.52286ZM20 17.4769L15.2323 19.5956V4.52286L20 2.40411V17.4769Z" fill="#19AE9D"/>
</svg>
